<?xml version="1.0" encoding="UTF-8"?>
<!-- Created with Inkscape (http://www.inkscape.org/) -->
<svg width="852" height="780" version="1.1" viewBox="0 0 852 780" xmlns="http://www.w3.org/2000/svg">
 <g>
  <path d="m397.5 728.34c-27.907-2.2607-62.821-9.69-86.754-18.46-51.337-18.812-90.445-43.068-127.03-78.789-53.094-51.839-83.699-113.93-95.418-193.59-2.5143-17.09-2.4986-66.64 0.026672-84.5 5.5972-39.587 15.571-72.985 31.207-104.5 35.209-70.964 94.109-127.31 166.6-159.38 92.023-40.71 200.24-38.329 291.37 6.4114 37.748 18.532 65.392 38.284 95.063 67.923 26.645 26.616 48.288 57.709 64.346 92.443 33.411 72.267 39.168 156.56 16.083 235.51-20.67 70.686-64.378 131.39-126.27 175.38-48.312 34.335-106.24 55.281-169.22 61.182-9.9272 0.93021-50.04 1.179-60 0.37217zm129.69-162.22c4.8171-0.56224 10.429-1.902 12.595-3.0071 5.0637-2.5833 9.8347-8.0711 11.157-12.834 0.67581-2.4336 1.051-24.275 1.0546-61.396l6e-3 -57.619-3.75-0.61983c-2.0625-0.34091-5.8822-0.62479-8.4883-0.63084l-4.7388-0.01101-27.535 25.922c-15.144 14.257-29.627 27.307-32.183 29-5.2535 3.4798-10.011 3.9723-13.881 1.4369-4.6395-3.0399-4.8972-4.5056-5.4242-30.858l-0.5-25-7-0.76269c-8.8856-0.96813-16.676-3.1974-22.848-6.5381-8.8912-4.8123-17.015-16.138-19.591-27.311-1.1827-5.1303-1.2724-70.746-0.14134-103.39 0.65203-18.817 1.0761-22.868 2.931-28 4.4432-12.292 12.71-21.151 23.997-25.715l5.6525-2.2854h113l0.29763-31c0.32575-33.93 0.0352-36.343-5.0771-42.166-5.7542-6.5536-3.2459-6.3342-72.438-6.3367-64.294-2e-3 -171.9 1.5962-189.77 2.819l-9.9833 0.68325-0.0167 26-0.0168 26-2.7572 5.6118c-3.3159 6.7489-11.92 15.184-18.492 18.129-3.8523 1.7263-7.6822 2.2683-20.251 2.8658-8.525 0.40532-18.826 0.77216-22.891 0.8152l-7.3911 0.0783 0.71191 148.25c0.40415 84.161 1.1247 151.26 1.6667 155.21 1.4557 10.605 5.8918 16.949 14.523 20.769 2.2431 0.99277 24.236 1.3856 99.381 1.7749 53.075 0.275 119.68 0.6422 148 0.81601 30.637 0.18799 55.02-0.0948 60.188-0.69803zm-281.69-49.654c-9.1704-4.658-8.1511-14.273 1.8378-17.336 4.2558-1.3051 207.18-2.1901 210.83-0.91945 7.7207 2.6915 7.817 14.754 0.14899 18.675-1.5675 0.80164-31.497 1.1153-106 1.1109-91.015-5e-3 -104.19-0.19405-106.82-1.53zm5.1459-56.484c-4.8107-0.42762-6.2811-1.0168-8.25-3.3058-3.4335-3.9917-3.2266-8.997 0.52719-12.751l2.9231-2.9231 59.327-0.25c109.8-0.46268 102.28-0.617 105.23 2.1599 5.1071 4.8013 3.9535 13.511-2.1088 15.92-2.9114 1.1572-145.84 2.1994-157.65 1.1496zm-7.9629-60.569c-2.0998-2.0998-2.683-3.642-2.683-7.0944 0-5.1192 2.9734-8.6606 8.1392-9.6937 1.7109-0.34219 31.292-0.62048 65.736-0.61842 59.505 4e-3 62.778 0.0973 65.705 1.8817 1.6938 1.0329 3.6865 3.343 4.4282 5.1335 1.7029 4.1112 0.11259 7.4169-5.0181 10.431-3.4067 2.0013-5.0384 2.0571-68.557 2.3467l-65.067 0.29666zm3.6118-54.47c-4.2233-1.2842-6.2948-4.4349-6.2948-9.5743 0-3.4496 0.54284-4.6454 3.0767-6.7775l3.0767-2.5889h65.788c64.739 0 65.83 0.0326 68.386 2.0433 4.771 3.7529 4.1281 13.089-1.0883 15.802-2.4687 1.2841-128.9 2.3255-132.94 1.0951zm-0.2322-57.203c-7.8702-2.0428-9.5679-13.989-2.5238-17.758 3.6022-1.9278 132.15-2.0183 135.74-0.0955 5.5769 2.982 5.9957 12.424 0.71969 16.226-2.3356 1.683-6.7243 1.8208-66.75 2.0958-35.338 0.1619-65.572-0.0487-67.187-0.46792zm54.633-63.389c-5.2938-2.7737-6.4251-10.225-2.2838-15.043l2.4119-2.8058 41.338-0.63076c22.736-0.34691 65.464-0.68441 94.952-0.75l53.614-0.11924 2.6364 2.6364c3.8765 3.8766 3.7367 10.26-0.29914 13.656l-2.9355 2.4701-42.314 0.6072c-100.49 1.4421-144.34 1.4358-147.12-0.021zm316.34 123.4c4.9792-2.5108 8.9786-8.8687 8.9399-14.212-0.0333-4.6014-3.3439-10.95-7.1115-13.637-4.5721-3.2609-14.34-3.4237-18.543-0.30912-4.8592 3.6004-7.3233 8.1784-7.3233 13.606 0 13.168 12.172 20.536 24.038 14.552zm-121.46-0.64633c13.564-6.1606 13.084-25.02-0.77801-30.567-13.257-5.3045-26.21 9.1098-20.439 22.745 1.7323 4.0927 4.5028 6.5504 9.3218 8.2691 5.1006 1.8191 7.0671 1.7451 11.895-0.44752zm62.953-0.56957c2.4546-1.4385 4.8869-3.8972 5.8378-5.9011 2.4016-5.061 2.1187-12.602-0.62794-16.735-2.4871-3.7425-9.7172-7.8979-13.742-7.8979-1.4169 0-4.5822 1.0125-7.034 2.25-8.3913 4.2354-11.461 14.841-6.6996 23.146 4.3499 7.5874 14.206 9.8617 22.266 5.1382zm-316.92-128.01c5.3336-1.5839 9.613-5.3008 11.327-9.8386 1.2438-3.2919 1.4671-37.015 0.24186-36.518-1.2113 0.49135-42.147 46.203-42.164 47.083-0.0275 1.4274 25.373 0.82421 30.594-0.72649z" fill="#9fa09f"/>
  <path d="m399.5 727.33c-60.929-5.1458-117.88-24.872-167-57.838-31.126-20.892-58.925-46.95-79.419-74.445-35.084-47.071-54.617-95.657-63.738-158.54-2.2192-15.301-2.5163-61.488-0.50167-78 5.3985-44.247 17.941-85.091 36.782-119.78 50.919-93.751 143.41-158.46 248.31-173.72 37.44-5.4465 83.76-4.0974 121.21 3.5302 83.337 16.973 160.74 66.399 208.69 133.27 21.008 29.295 33.903 54.481 45.162 88.204 35.226 105.51 13.951 226.87-54.697 312-14.46 17.932-23.681 27.496-40.225 41.721-24.855 21.371-43.83 34.126-71.087 47.785-38.455 19.27-77.463 30.365-122.99 34.984-12.938 1.3125-48.965 1.8106-60.5 0.83648zm137.34-161.67c6.6253-2.2185 13.206-8.5104 14.928-14.273 0.91222-3.053 1.2298-19.229 1.2298-62.633v-58.517l-2.25-0.60297c-1.2375-0.33164-5.3369-0.60913-9.1098-0.61664-7.9756-0.0159-2.8902-3.9518-41.049 31.77-13.092 12.256-25.538 23.169-27.658 24.25-5.3022 2.705-8.3405 2.4678-12.168-0.94995l-3.2658-2.9161-0.5-25.802-0.5-25.802-9.5-1.2572c-14.765-1.954-22.062-5.2892-29.679-13.567-5.104-5.5462-7.8558-10.782-9.9805-18.991-1.4393-5.5606-1.5407-12.46-0.92094-62.668 0.38303-31.031 1.1296-58.704 1.6591-61.496 2.076-10.947 9.7285-22.913 17.987-28.126 9.629-6.0785 8.2223-5.9586 69.934-5.9586h56.5v-68.331l-3.0066-4.3346c-1.9041-2.7451-4.8377-5.2513-8-6.8346l-4.9934-2.5-66.5 0.27714c-73.421 0.30598-177.3 1.9774-189 3.0409l-7.5 0.68195v52l-2.6352 5.62c-3.7065 7.9049-8.9954 13.327-16.701 17.12l-6.6208 3.2597-22.522 0.66099c-12.387 0.36355-22.634 0.70105-22.772 0.75-0.47987 0.17085-5e-3 166.15 0.67666 236.59 0.61918 63.967 0.85919 71.445 2.4228 75.496 2.2002 5.6999 6.8912 10.661 12.651 13.38 4.4254 2.0888 5.7193 2.133 78 2.6646 40.425 0.29732 109.95 0.51006 154.5 0.47277 75.05-0.0628 81.392-0.19923 86.343-1.8568zm-290.82-50.401c-7.769-3.9204-7.656-10.77 0.23498-14.24 4.0438-1.7782 9.0496-1.8744 105.74-2.0327 55.825-0.0914 102.53-0.12509 103.8-0.0749 6.4474 0.25628 9.414 9.4109 4.7913 14.785l-2.4133 2.8058-104.34 0.25594c-97.813 0.23994-104.55 0.14615-107.82-1.5zm-1.8196-58.284c-4.4036-4.1025-3.644-11.538 1.414-13.843 1.7767-0.80953 25.14-1.1297 82.432-1.1297 78.276 0 79.994 0.0414 81.928 1.9746 4.2073 4.2073 3.2152 11.106-1.9746 13.731-1.9522 0.98744-19.934 1.2678-82.061 1.2793-78.552 0.0146-79.589-0.011-81.738-2.0129zm-0.66398-58.345c-3.1052-3.1052-3.3845-8.3586-0.62573-11.767 1.6927-2.0911 3.035-2.435 11.75-3.0106 5.4115-0.35738 34.814-0.6932 65.339-0.74626 53.799-0.0935 55.6-0.0353 58.775 1.9002 4.572 2.7876 5.8944 6.615 3.4346 9.941-4.2054 5.6863-2.2536 5.5265-71.923 5.8869l-64.213 0.33214zm5.4633-54.288c-7.7057-1.0764-10.867-9.5633-5.5454-14.885l2.4545-2.4546h131.74l2.3718 2.5247c3.3198 3.5338 3.0974 9.1147-0.48625 12.197l-2.6484 2.2781h-44.284c-24.356 0-52.344 0.18648-62.194 0.41439-9.8507 0.22792-19.485 0.19438-21.41-0.0745zm-6.5478-59.986c-2.994-3.2306-3.2274-8.174-0.54266-11.493l1.9096-2.3608 31.34-0.5c17.237-0.275 47.638-0.275 67.557 0 40.17 0.55458 38.81 0.30689 39.94 7.2729 0.50718 3.1254 0.16315 4.061-2.4566 6.6808l-3.0464 3.0464h-132.25zm59.592-60.532c-5.251-1.9455-6.6702-9.9449-2.4655-13.898l2.5789-2.4243 53.171-0.61968c29.244-0.34083 71.529-0.67833 93.967-0.75l40.795-0.13032 2.4545 2.4546c3.2827 3.2827 3.3382 8.7526 0.12165 11.969l-2.3329 2.3329-55.417 0.63471c-89.124 1.0208-130.91 1.1561-132.87 0.43038zm318.54 123.68c8.6041-6.5627 8.4256-22.081-0.32576-28.312-10.987-7.8234-26.231-1.8332-28.69 11.274-1.2496 6.6608 2.923 15.565 8.7846 18.746 5.8556 3.178 14.817 2.4214 20.231-1.708zm-65.441 2.3378c18.429-5.5213 15.611-33.032-3.5455-34.621-16.206-1.3439-25.47 18.375-14.122 30.06 4.948 5.0948 10.823 6.6116 17.668 4.561zm-58.166-1.8283c2.1462-1.0949 5.1658-3.6474 6.7102-5.6722 2.4272-3.1823 2.8079-4.5838 2.8079-10.337 0-5.795-0.37295-7.1446-2.8839-10.437-6.88-9.0202-19.32-9.9187-26.813-1.9365-8.7018 9.2703-6.7236 22.621 4.1669 28.123 5.5008 2.7789 10.902 2.8663 16.012 0.25923zm-254.88-128.15c5.1196-1.7141 9.9182-5.6965 11.741-9.7437 1.3462-2.9893 1.5854-6.7354 1.3758-21.553-0.13949-9.8641-0.51194-18.189-0.82767-18.5-0.69087-0.68028-6.534 5.495-28.64 30.268-9.2125 10.324-16.75 19.197-16.75 19.719 0 1.3656 28.951 1.1995 33.101-0.18991z" fill="#76a0ad"/>
  <path d="m399.5 727.33c-60.929-5.1458-117.88-24.872-167-57.838-31.126-20.892-58.925-46.95-79.419-74.445-35.084-47.071-54.617-95.657-63.738-158.54-2.2192-15.301-2.5163-61.488-0.50167-78 5.3985-44.247 17.941-85.091 36.782-119.78 50.919-93.751 143.41-158.46 248.31-173.72 37.44-5.4465 83.76-4.0974 121.21 3.5302 83.337 16.973 160.74 66.399 208.69 133.27 21.008 29.295 33.903 54.481 45.162 88.204 35.226 105.51 13.951 226.87-54.697 312-14.46 17.932-23.681 27.496-40.225 41.721-24.855 21.371-43.83 34.126-71.087 47.785-38.455 19.27-77.463 30.365-122.99 34.984-12.938 1.3125-48.965 1.8106-60.5 0.83648zm70-22.741c51.606-7.3851 95.397-23.659 136.63-50.776 42.674-28.064 74.17-61.535 99.748-106 15.029-26.128 26.467-57.489 33.118-90.806 4.7339-23.713 5.5085-32.977 5.435-65-0.0619-26.94-0.29678-30.903-2.7072-45.671-9.9954-61.237-35.537-114.59-75.979-158.72-31.971-34.884-76.155-65.098-121.25-82.91-68.269-26.968-151.25-29.284-221-6.1664-46.771 15.502-85.968 39.504-122.37 74.93-53.287 51.864-83.949 115-92.292 190.04-1.574 14.156-1.5607 51.105 0.023 64 12.29 100.07 61.027 177.69 144.76 230.54 41.363 26.107 88.471 42.134 140.87 47.927 12.448 1.376 62.124 0.46056 75-1.3821zm-197-117.56c-54.437-0.52286-55.055-0.5516-60.364-2.8085-10.976-4.666-18.238-11.414-23.438-21.779-5.7182-11.397-5.5416-6.0405-5.8836-178.44l-0.31443-158.5 2.41-5.3358c3.0549-6.7635 7.0734-11.91 27.742-35.532 23.15-26.458 31.305-34.397 39.951-38.893 10.457-5.4379 17.089-6.6628 41.897-7.7382 33.769-1.4638 169.52-3.2888 211-2.8368 35.532 0.38715 37.224 0.49242 42.647 2.6528 9.6501 3.8444 18.136 12.966 22.538 24.226 1.4957 3.8264 1.8183 9.4116 2.2788 39.457l0.53643 35 44.5 0.51981c39.864 0.46566 45.014 0.71053 49.429 2.3504 13.768 5.1136 23.304 16.442 26.456 31.429 1.253 5.9571 1.339 46.814 0.20156 95.701-0.66036 28.381-0.90271 31.457-2.8689 36.41-3.5691 8.991-8.5 15.445-15.238 19.945-11.241 7.5064-11.208 7.5019-59.48 8.1066l-43 0.53866-1 124-3.2279 6.815c-3.9284 8.2941-11.551 16.055-19.646 20.003-11.781 5.7454-10.009 5.6654-120.63 5.4427-55.825-0.1124-126.25-0.44209-156.5-0.73264zm264.34-21.372c6.6253-2.2185 13.206-8.5104 14.928-14.273 0.91222-3.053 1.2298-19.229 1.2298-62.633v-58.517l-2.25-0.60297c-1.2375-0.33164-5.3369-0.60913-9.1098-0.61664-7.9756-0.0159-2.8902-3.9518-41.049 31.77-13.092 12.256-25.538 23.169-27.658 24.25-5.3022 2.705-8.3405 2.4678-12.168-0.94995l-3.2658-2.9161-0.5-25.802-0.5-25.802-9.5-1.2572c-14.765-1.954-22.062-5.2892-29.679-13.567-5.104-5.5462-7.8558-10.782-9.9805-18.991-1.4393-5.5606-1.5407-12.46-0.92094-62.668 0.38303-31.031 1.1296-58.704 1.6591-61.496 2.076-10.947 9.7285-22.913 17.987-28.126 9.629-6.0785 8.2223-5.9586 69.934-5.9586h56.5v-68.331l-3.0066-4.3346c-1.9041-2.7451-4.8377-5.2513-8-6.8346l-4.9934-2.5-66.5 0.27714c-73.421 0.30598-177.3 1.9774-189 3.0409l-7.5 0.68195v52l-2.6352 5.62c-3.7065 7.9049-8.9954 13.327-16.701 17.12l-6.6208 3.2597-22.522 0.66099c-12.387 0.36355-22.634 0.70105-22.772 0.75-0.47987 0.17085-5e-3 166.15 0.67666 236.59 0.61918 63.967 0.85919 71.445 2.4228 75.496 2.2002 5.6999 6.8912 10.661 12.651 13.38 4.4254 2.0888 5.7193 2.133 78 2.6646 40.425 0.29732 109.95 0.51006 154.5 0.47277 75.05-0.0628 81.392-0.19923 86.343-1.8568zm-290.82-50.401c-7.769-3.9204-7.656-10.77 0.23498-14.24 4.0438-1.7782 9.0496-1.8744 105.74-2.0327 55.825-0.0914 102.53-0.12509 103.8-0.0749 6.4474 0.25628 9.414 9.4109 4.7913 14.785l-2.4133 2.8058-104.34 0.25594c-97.813 0.23994-104.55 0.14615-107.82-1.5zm-1.8196-58.284c-4.4036-4.1025-3.644-11.538 1.414-13.843 1.7767-0.80953 25.14-1.1297 82.432-1.1297 78.276 0 79.994 0.0414 81.928 1.9746 4.2073 4.2073 3.2152 11.106-1.9746 13.731-1.9522 0.98744-19.934 1.2678-82.061 1.2793-78.552 0.0146-79.589-0.011-81.738-2.0129zm-0.66398-58.345c-3.1052-3.1052-3.3845-8.3586-0.62573-11.767 1.6927-2.0911 3.035-2.435 11.75-3.0106 5.4115-0.35738 34.814-0.6932 65.339-0.74626 53.799-0.0935 55.6-0.0353 58.775 1.9002 4.572 2.7876 5.8944 6.615 3.4346 9.941-4.2054 5.6863-2.2536 5.5265-71.923 5.8869l-64.213 0.33214zm5.4633-54.288c-7.7057-1.0764-10.867-9.5633-5.5454-14.885l2.4545-2.4546h131.74l2.3718 2.5247c3.3198 3.5338 3.0974 9.1147-0.48625 12.197l-2.6484 2.2781h-44.284c-24.356 0-52.344 0.18648-62.194 0.41439-9.8507 0.22792-19.485 0.19438-21.41-0.0745zm-6.5478-59.986c-2.994-3.2306-3.2274-8.174-0.54266-11.493l1.9096-2.3608 31.34-0.5c17.237-0.275 47.638-0.275 67.557 0 40.17 0.55458 38.81 0.30689 39.94 7.2729 0.50718 3.1254 0.16315 4.061-2.4566 6.6808l-3.0464 3.0464h-132.25zm59.592-60.532c-5.251-1.9455-6.6702-9.9449-2.4655-13.898l2.5789-2.4243 53.171-0.61968c29.244-0.34083 71.529-0.67833 93.967-0.75l40.795-0.13032 2.4545 2.4546c3.2827 3.2827 3.3382 8.7526 0.12165 11.969l-2.3329 2.3329-55.417 0.63471c-89.124 1.0208-130.91 1.1561-132.87 0.43038zm314.5 126.3c6.1984-2.8156 11.447-10.437 11.447-16.62 0-3.146-2.4927-9.0043-5.09-11.962-8.54-9.7266-24.218-7.7721-29.778 3.7122-7.6075 15.715 7.7269 31.999 23.42 24.871zm-58.559-1.1111c10.434-5.3231 13.327-19.032 5.8203-27.582-4.1371-4.7119-7.942-6.5354-13.73-6.5802-12.756-0.0988-21.485 13.047-16.534 24.898 2.0719 4.9589 4.204 7.189 8.9619 9.3738 5.2224 2.3981 10.641 2.3596 15.482-0.11004zm-59.559-1.4112c11.555-6.7715 11.578-24.411 0.0406-31.172-9.181-5.3804-21.192-1.6393-25.55 7.9582-4.2002 9.2492-1.34 18.201 7.5869 23.745 4.4399 2.7575 12.73 2.5118 17.923-0.53124zm-256.32-127.74c5.1196-1.7141 9.9182-5.6965 11.741-9.7437 1.3462-2.9893 1.5854-6.7354 1.3758-21.553-0.13949-9.8641-0.51194-18.189-0.82767-18.5-0.69087-0.68028-6.534 5.495-28.64 30.268-9.2125 10.324-16.75 19.197-16.75 19.719 0 1.3656 28.951 1.1995 33.101-0.18991z" fill="#5a9c72"/>
  <path d="m399.5 727.33c-60.929-5.1458-117.88-24.872-167-57.838-31.126-20.892-58.925-46.95-79.419-74.445-35.084-47.071-54.617-95.657-63.738-158.54-2.2192-15.301-2.5163-61.488-0.50167-78 5.3985-44.247 17.941-85.091 36.782-119.78 50.919-93.751 143.41-158.46 248.31-173.72 37.44-5.4465 83.76-4.0974 121.21 3.5302 83.337 16.973 160.74 66.399 208.69 133.27 21.008 29.295 33.903 54.481 45.162 88.204 35.226 105.51 13.951 226.87-54.697 312-14.46 17.932-23.681 27.496-40.225 41.721-24.855 21.371-43.83 34.126-71.087 47.785-38.455 19.27-77.463 30.365-122.99 34.984-12.938 1.3125-48.965 1.8106-60.5 0.83648zm70-22.741c51.606-7.3851 95.397-23.659 136.63-50.776 42.674-28.064 74.17-61.535 99.748-106 15.029-26.128 26.467-57.489 33.118-90.806 4.7339-23.713 5.5085-32.977 5.435-65-0.0619-26.94-0.29678-30.903-2.7072-45.671-9.9954-61.237-35.537-114.59-75.979-158.72-31.971-34.884-76.155-65.098-121.25-82.91-68.269-26.968-151.25-29.284-221-6.1664-46.771 15.502-85.968 39.504-122.37 74.93-53.287 51.864-83.949 115-92.292 190.04-1.574 14.156-1.5607 51.105 0.023 64 12.29 100.07 61.027 177.69 144.76 230.54 41.363 26.107 88.471 42.134 140.87 47.927 12.448 1.376 62.124 0.46056 75-1.3821zm-197-117.56c-54.437-0.52286-55.055-0.5516-60.364-2.8085-10.976-4.666-18.238-11.414-23.438-21.779-5.7182-11.397-5.5416-6.0405-5.8836-178.44l-0.31443-158.5 2.41-5.3358c3.0549-6.7635 7.0734-11.91 27.742-35.532 23.15-26.458 31.305-34.397 39.951-38.893 10.457-5.4379 17.089-6.6628 41.897-7.7382 33.769-1.4638 169.52-3.2888 211-2.8368 35.532 0.38715 37.224 0.49242 42.647 2.6528 9.6501 3.8444 18.136 12.966 22.538 24.226 1.4957 3.8264 1.8183 9.4116 2.2788 39.457l0.53643 35 44.5 0.51981c39.864 0.46566 45.014 0.71053 49.429 2.3504 13.768 5.1136 23.304 16.442 26.456 31.429 1.253 5.9571 1.339 46.814 0.20156 95.701-0.66036 28.381-0.90271 31.457-2.8689 36.41-3.5691 8.991-8.5 15.445-15.238 19.945-11.241 7.5064-11.208 7.5019-59.48 8.1066l-43 0.53866-1 124-3.2279 6.815c-3.9284 8.2941-11.551 16.055-19.646 20.003-11.781 5.7454-10.009 5.6654-120.63 5.4427-55.825-0.1124-126.25-0.44209-156.5-0.73264zm264.34-21.372c6.6253-2.2185 13.206-8.5104 14.928-14.273 0.91222-3.053 1.2298-19.229 1.2298-62.633v-58.517l-2.25-0.60297c-1.2375-0.33164-5.3369-0.60913-9.1098-0.61664-7.9756-0.0159-2.8902-3.9518-41.049 31.77-13.092 12.256-25.538 23.169-27.658 24.25-5.3022 2.705-8.3405 2.4678-12.168-0.94995l-3.2658-2.9161-0.5-25.802-0.5-25.802-9.5-1.2572c-14.765-1.954-22.062-5.2892-29.679-13.567-5.104-5.5462-7.8558-10.782-9.9805-18.991-1.4393-5.5606-1.5407-12.46-0.92094-62.668 0.38303-31.031 1.1296-58.704 1.6591-61.496 2.076-10.947 9.7285-22.913 17.987-28.126 9.629-6.0785 8.2223-5.9586 69.934-5.9586h56.5v-68.331l-3.0066-4.3346c-1.9041-2.7451-4.8377-5.2513-8-6.8346l-4.9934-2.5-66.5 0.27714c-73.421 0.30598-177.3 1.9774-189 3.0409l-7.5 0.68195v52l-2.6352 5.62c-3.7065 7.9049-8.9954 13.327-16.701 17.12l-6.6208 3.2597-22.522 0.66099c-12.387 0.36355-22.634 0.70105-22.772 0.75-0.47987 0.17085-5e-3 166.15 0.67666 236.59 0.61918 63.967 0.85919 71.445 2.4228 75.496 2.2002 5.6999 6.8912 10.661 12.651 13.38 4.4254 2.0888 5.7193 2.133 78 2.6646 40.425 0.29732 109.95 0.51006 154.5 0.47277 75.05-0.0628 81.392-0.19923 86.343-1.8568zm-290.82-50.401c-7.769-3.9204-7.656-10.77 0.23498-14.24 4.0438-1.7782 9.0496-1.8744 105.74-2.0327 55.825-0.0914 102.53-0.12509 103.8-0.0749 6.4474 0.25628 9.414 9.4109 4.7913 14.785l-2.4133 2.8058-104.34 0.25594c-97.813 0.23994-104.55 0.14615-107.82-1.5zm-1.8196-58.284c-4.4036-4.1025-3.644-11.538 1.414-13.843 1.7767-0.80953 25.14-1.1297 82.432-1.1297 78.276 0 79.994 0.0414 81.928 1.9746 4.2073 4.2073 3.2152 11.106-1.9746 13.731-1.9522 0.98744-19.934 1.2678-82.061 1.2793-78.552 0.0146-79.589-0.011-81.738-2.0129zm-0.66398-58.345c-3.1052-3.1052-3.3845-8.3586-0.62573-11.767 1.6927-2.0911 3.035-2.435 11.75-3.0106 5.4115-0.35738 34.814-0.6932 65.339-0.74626 53.799-0.0935 55.6-0.0353 58.775 1.9002 4.572 2.7876 5.8944 6.615 3.4346 9.941-4.2054 5.6863-2.2536 5.5265-71.923 5.8869l-64.213 0.33214zm5.4633-54.288c-7.7057-1.0764-10.867-9.5633-5.5454-14.885l2.4545-2.4546h131.74l2.3718 2.5247c3.3198 3.5338 3.0974 9.1147-0.48625 12.197l-2.6484 2.2781h-44.284c-24.356 0-52.344 0.18648-62.194 0.41439-9.8507 0.22792-19.485 0.19438-21.41-0.0745zm-6.5478-59.986c-2.994-3.2306-3.2274-8.174-0.54266-11.493l1.9096-2.3608 31.34-0.5c17.237-0.275 47.638-0.275 67.557 0 40.17 0.55458 38.81 0.30689 39.94 7.2729 0.50718 3.1254 0.16315 4.061-2.4566 6.6808l-3.0464 3.0464h-132.25zm59.592-60.532c-5.251-1.9455-6.6702-9.9449-2.4655-13.898l2.5789-2.4243 53.171-0.61968c29.244-0.34083 71.529-0.67833 93.967-0.75l40.795-0.13032 2.4545 2.4546c3.2827 3.2827 3.3382 8.7526 0.12165 11.969l-2.3329 2.3329-55.417 0.63471c-89.124 1.0208-130.91 1.1561-132.87 0.43038zm196.84 211.4c11.338-10.878 22.137-21.025 23.998-22.548l3.3835-2.7693 58.616 0.50959c32.239 0.28027 61.607 0.13977 65.262-0.31224 11.777-1.4566 19.216-6.9016 21.817-15.969 0.50373-1.7564 1.2371-28.055 1.6296-58.442 0.79247-61.34 0.69497-62.659-5.1372-69.472-7.0947-8.2885 2.153-7.6045-116.34-8.6051-117.32-0.99053-112.22-1.2318-118.85 5.6218-6.6418 6.8624-6.4685 5.1182-6.9832 70.265l-0.46616 59 3.3438 5.4512c5.2289 8.5244 9.556 10.283 27.03 10.986l13.982 0.56257 2.9159 3.2658c2.7544 3.0849 2.9159 3.7548 2.9159 12.094 0 10.97 1.137 30.14 1.7877 30.14 0.26605 0 9.7602-8.9003 21.098-19.778zm-256.78-215.36c5.1196-1.7141 9.9182-5.6965 11.741-9.7437 1.3462-2.9893 1.5854-6.7354 1.3758-21.553-0.13949-9.8641-0.51194-18.189-0.82767-18.5-0.69087-0.68028-6.534 5.495-28.64 30.268-9.2125 10.324-16.75 19.197-16.75 19.719 0 1.3656 28.951 1.1995 33.101-0.18991z" fill="#5a7b84"/>
  <path d="m405 727.37c-28.925-1.7012-64.71-8.7714-91.391-18.057-50.018-17.406-92.001-43.203-128.81-79.145-38.044-37.15-62.433-76.231-79.989-128.17-7.813-23.116-12.408-43.991-15.959-72.5-1.811-14.539-1.5254-54.871 0.50956-71.957 3.0824-25.881 8.6545-49.869 17.63-75.899 22.659-65.712 73.947-129.07 135.92-167.9 46.04-28.849 96.949-45.937 151.08-50.711 15.066-1.3287 45.599-1.3075 61.696 0.04286 83.545 7.0083 164.36 46.295 223.19 108.5 12.911 13.652 30.794 37.7 41.603 55.945 23.36 39.433 38.1 84.379 43.012 131.15 1.931 18.388 1.9386 54.754 0.0149 71.829-8.4814 75.283-38.637 141.18-88.016 192.34-56.143 58.165-126.78 92.948-208.5 102.67-13.115 1.5608-48.857 2.6332-62 1.8602zm64.353-21.813c63.043-8.8167 118.06-32.695 166.15-72.11 12.662-10.379 35.85-34.078 45.448-46.45 37.116-47.844 58.588-103.42 64.133-166 1.6579-18.71 0.6434-54.332-2.0649-72.5-6.9261-46.464-23.232-88.212-49.797-127.5-11.23-16.609-17.214-23.896-32.719-39.85-32.267-33.2-68.58-57.878-110.56-75.134-40.459-16.631-78.991-24.102-124.44-24.128-29.945-0.01729-54.494 2.7931-79.375 9.0867-82.507 20.87-152.55 72.869-196.57 145.94-45.695 75.841-55.671 171.65-26.862 257.98 7.817 23.425 15.59 40.331 28.086 61.087 14.748 24.496 26.667 39.428 47.999 60.131 52.721 51.169 118.21 81.923 192.5 90.393 16.564 1.8886 61.734 1.3428 78.082-0.94347zm-196.85-119.53c-51.13-0.4911-55.317-0.66215-59.5-2.431-12.837-5.4278-21.806-15.158-26.138-28.357-2.1987-6.6982-2.2176-7.36-3.0413-106.24-0.45589-54.725-0.71449-127.4-0.57468-161.5l0.25421-62 2.4749-5.5c1.3612-3.025 6.0582-9.775 10.438-15 17.565-20.955 43.676-49.714 48.345-53.247 7.207-5.4531 16.906-9.5089 26.938-11.265 11.904-2.0838 95.501-3.7564 194.3-3.8876 69.915-0.0929 75.87 0.031 80.5 1.6746 10.047 3.5664 17.99 11.732 23.077 23.725 1.7307 4.08 1.9386 7.7173 2.2267 38.971 0.20633 22.38 0.69011 34.92 1.3793 35.75 0.83021 1.0004 9.9278 1.279 41.755 1.279 44.408 0 49.292 0.43841 58.33 5.236 9.8571 5.2327 17.107 15.608 19.748 28.264 1.8262 8.7489 0.43997 119.33-1.5939 127.13-3.7133 14.256-13.17 24.409-27.183 29.182-3.9682 1.3517-11.823 1.7017-48.24 2.1491l-43.5 0.53447-1 125-3.0818 6.5029c-1.695 3.5766-5.2041 8.6252-7.7981 11.219-5.4656 5.4656-16.723 11.336-24.507 12.779-5.5568 1.0304-157.53 1.046-263.61 0.0271zm266.12-20.845c2.815-1.2741 6.5047-3.7491 8.1993-5.5 6.4076-6.6207 6.2591-5.1192 6.8543-69.327 0.42058-45.371 0.2672-58.725-0.68773-59.876-0.91661-1.1044-3.4867-1.4809-10.11-1.4809h-8.8812l-27.246 25.628c-26.79 25.199-35.439 32.372-39.033 32.372-2.8004 0-7.5144-2.7756-8.934-5.2604-0.90427-1.5827-1.4263-9.5731-1.7796-27.24l-0.5-25-3.5-0.68182c-1.925-0.37499-6.8015-1.1677-10.837-1.7617-18.729-2.7567-31.959-15.736-35.246-34.578-0.72589-4.1611-0.75995-23.623-0.11024-63 0.89236-54.084 1.049-57.318 3.0828-63.651 2.4552-7.6457 9.1738-17.218 14.824-21.12 9.3907-6.4854 6.093-6.1794 69.998-6.4955l58.212-0.28798 0.61782-3.2932c0.3398-1.8113 0.46933-16.757 0.28785-33.212-0.31476-28.54-0.43092-30.107-2.5207-34.013-3.2076-5.9953-8.2931-10.022-14.279-11.306-6.4414-1.3814-40.715-1.3982-146.03-0.0716-83.74 1.0548-115.51 2.0816-117.22 3.7882-0.58935 0.58935-0.92848 11.014-0.85653 26.33l0.11911 25.354-2.8872 6c-5.2735 10.959-14.576 17.844-26.425 19.558-3.4286 0.4959-13.97 0.91069-23.425 0.92175-12.656 0.0148-17.395 0.34988-17.964 1.2701-0.87254 1.4108-0.45863 206.9 0.54033 268.25l0.65129 40 2.6109 5.607c2.6125 5.6105 6.6624 9.5678 12.357 12.074 4.0768 1.7946 56.107 2.4063 200.5 2.3574l114.5-0.03884zm-291.12-49.701c-2.2-0.79859-4.1009-1.4588-4.2243-1.467-0.12338-8e-3 -0.94016-1.3994-1.8151-3.0913-1.4502-2.8043-1.4512-3.2892-0.0118-5.4861 0.86846-1.3254 2.7902-3.2036 4.2704-4.1738 2.5206-1.652 9.3277-1.7825 107.25-2.0567l104.56-0.29272 2.2223 2.0704c1.2223 1.1387 2.5037 3.1917 2.8477 4.5621 0.7726 3.0783-1.2368 8.1875-3.7487 9.5318-1.2018 0.6432-38.696 1.1553-104.61 1.4288-88.066 0.36542-103.31 0.21893-106.74-1.0257zm-3.1442-58.852c-3.5638-3.0654-3.8103-8.6194-0.52826-11.902l2.2275-2.2278 80.316-0.26733c80.152-0.26678 80.321-0.26308 82.972 1.8226 2.8398 2.2338 3.6167 7.2828 1.678 10.905-2.0937 3.9121-4.7931 4.0394-85.615 4.0394h-78.295zm-0.39892-58.519c-4.452-4.452-3.7758-10.017 1.5626-12.859 2.3501-1.2512 120.28-2.9592 127.68-1.8492 12.102 1.8149 13.228 14.245 1.4512 16.019-1.7317 0.26084-31.18 0.73786-65.442 1.06l-62.293 0.58579zm-0.50229-56.565c-3.1787-3.1787-3.1949-7.5731-0.0415-11.24l2.4131-2.8058 131.22-0.54226 2.4757 2.4757c2.4365 2.4365 3.1941 6.5308 1.8545 10.022-1.7238 4.4921-2.5457 4.5448-70.875 4.5448h-64.595zm0.29269-56.53c-4.8238-3.7944-4.3416-11.513 0.8674-13.886 3.5478-1.6165 130.63-1.5975 133.7 0.02 2.956 1.5559 3.6509 2.7905 3.669 6.5185 0.0219 4.5286-0.84355 6.2074-4.0562 7.8688-2.3971 1.2396-12.666 1.463-67.244 1.463-62.729 0-64.481-0.0519-66.937-1.9842zm57.482-61.635c-2.3108-1.0217-4.3936-6.355-3.7055-9.4882 1.4092-6.4161-3.6848-6.0449 97.559-7.1102 69.486-0.73114 92.742-0.68412 94.856 0.1918 2.8491 1.1801 5.0609 4.6491 5.0609 7.9374 0 3.0177-3.8446 6.976-7.2933 7.509-4.5812 0.70798-184.95 1.6366-186.48 0.96011zm197.66 211.84c11.338-10.878 22.137-21.025 23.998-22.548l3.3835-2.7693 58.616 0.50959c32.239 0.28027 61.607 0.13977 65.262-0.31224 11.777-1.4566 19.216-6.9016 21.817-15.969 0.50373-1.7564 1.2371-28.055 1.6296-58.442 0.79247-61.34 0.69497-62.659-5.1372-69.472-7.0947-8.2885 2.153-7.6045-116.34-8.6051-117.32-0.99053-112.22-1.2318-118.85 5.6218-6.6418 6.8624-6.4685 5.1182-6.9832 70.265l-0.46616 59 3.3438 5.4512c5.2289 8.5244 9.556 10.283 27.03 10.986l13.982 0.56257 2.9159 3.2658c2.7544 3.0849 2.9159 3.7548 2.9159 12.094 0 10.97 1.137 30.14 1.7877 30.14 0.26605 0 9.7602-8.9003 21.098-19.778zm-253-216.93c8.5783-4.4094 9.5367-7.0717 9.9466-27.631 0.32616-16.36-0.07209-21.66-1.6275-21.66-0.4145 0-7.4934 7.5341-15.731 16.742-8.2375 9.2084-17.25 19.221-20.029 22.25-8.0397 8.7659-10.509 12.101-9.8042 13.241 0.44606 0.72173 5.6735 0.86855 16.237 0.45602 14.462-0.56478 15.968-0.80852 21.008-3.3991z" fill="#566161"/>
  <path d="m396.5 726.3c-68.186-6.1254-134.54-32.545-187.14-74.515-10.6-8.4578-32.444-29.003-40.027-37.648-8.664-9.8772-24.996-31.791-31.96-42.884-7.2287-11.514-18.026-32.909-24.251-48.053-11.314-27.525-17.989-52.597-22.816-85.705-2.4873-17.059-2.4862-65.571 0.0019-84 3.6011-26.673 10.188-53.306 19.119-77.31 18.905-50.809 54.734-100.07 100.05-137.57 101.65-84.108 246.4-100.24 368.14-41.033 82.043 39.902 144.23 110.52 171.33 194.54 10.013 31.053 14.636 58.185 15.737 92.37 3.205 99.492-38.01 195.84-110.37 258.02-32.938 28.302-61.584 45.744-99.805 60.772-42.177 16.583-82.505 23.856-130.5 23.534-12.925-0.0866-25.3-0.3191-27.5-0.51673zm52-18.311c59.644-4.2138 112.34-22.174 161.58-55.071 17.653-11.793 30.966-22.791 47.007-38.832 49.633-49.633 77.835-108.5 87.483-182.59 2.0141-15.469 2.2968-54.332 0.51277-70.5-8.4246-76.349-42.089-142.69-98.564-194.25-73.171-66.796-170.96-96.494-270.52-82.158-49.321 7.1013-101.43 28.502-140.87 57.861-54.617 40.647-94.714 95.49-114.09 156.04-28.973 90.552-15.685 189.55 36.034 268.45 25.485 38.88 63.702 74.211 107.49 99.372 54.349 31.23 120.28 46.167 183.94 41.67zm-227.95-123.05c-12.289-2.075-24.523-11.069-30.166-22.178-5.9964-11.805-5.6271-1.9971-6.4671-171.77-0.49638-100.33-0.4222-157.81 0.20907-162 0.59724-3.9676 2.2236-8.7406 4.1745-12.251 3.5785-6.4392 43.896-53.014 53.189-61.443 7.1707-6.5046 17.44-11.773 27.008-13.854 11.156-2.4274 70.367-3.6982 178.5-3.8312l97.5-0.11987 5.7938 2.9357c8.9039 4.5115 14.717 11.66 19.492 23.967 1.2975 3.3444 1.6929 10.436 2.1518 38.597l0.56215 34.5 37 0.677c54.479 0.99683 53.949 0.95997 61.234 4.2589 11.368 5.148 20.053 17.523 22.152 31.564 0.61315 4.1013 0.68417 27.535 0.19244 63.5-0.74181 54.258-0.88154 57.313-2.9043 63.5-4.3469 13.297-12.784 21.749-26.175 26.221-6.1745 2.0622-8.6033 2.1896-48.5 2.5439-23.1 0.20514-42.351 0.71559-42.78 1.1343-0.42913 0.41874-0.80682 26.59-0.83932 58.158s-0.45049 59.801-0.92886 62.741c-2.1436 13.171-10.437 23.668-23.705 30.003l-7.7468 3.6992-157 0.14002c-86.35 0.077-159.23-0.23587-161.95-0.69528zm306.06-16.881c13.099-1.2679 20.22-5.1726 24.736-13.564 2.1255-3.9495 2.1562-4.7559 2.4331-63.92 0.15421-32.956-0.11002-60.31-0.58719-60.787s-4.6607-1.1353-9.2968-1.4624c-10.121-0.71423-5.7532-3.8206-40.804 29.021-14.001 13.119-27.165 24.931-29.255 26.25-5.2041 3.2852-9.2703 3.1199-12.915-0.52512l-2.9231-2.9231v-24.877c0-18.015-0.33098-25.208-1.2-26.077-0.66-0.66-3.0225-1.2078-5.25-1.2174-6.2928-0.027-17.02-2.6128-22.801-5.4966-10.337-5.156-17.847-15.092-20.769-27.482-1.6813-7.1269-0.73095-115.39 1.0886-124 2.8599-13.543 12.235-25.576 23.44-30.087l5.9926-2.4126h56.5c31.075 0 57.062-0.36406 57.75-0.80902 1.762-1.1404 1.7865-62.168 0.0273-68.04-1.6833-5.6182-8.1966-12.167-13.516-13.589-5.3282-1.4246-112.6-1.4762-186.26-0.0897-58.163 1.0948-76.785 1.808-78.957 3.0235-1.2731 0.71246-1.5039 4.7588-1.5216 26.672-0.0208 25.714-0.0328 25.857-2.622 31.378-3.5779 7.6281-7.7471 12.062-14.955 15.903-5.809 3.0962-6.9106 3.3112-21.285 4.1554-8.3375 0.48963-18.984 1.004-23.659 1.1429l-8.5 0.25269-0.24741 49c-0.13608 26.95 0.13382 96.025 0.59977 153.5 0.94464 116.52 0.56946 110.87 7.8647 118.41 2.0806 2.1488 5.8079 4.8488 8.2829 6 4.443 2.0665 5.717 2.0995 100.5 2.6008 176.96 0.93609 198.96 0.94199 208.11 0.0559zm-279.59-53.18c-8.2772-3.3025-7.8175-11.574 0.76605-13.782 2.2013-0.56632 45.793-1.087 107.05-1.2787l103.34-0.32333 1.9119 2.3608c2.7263 3.3665 2.4804 8.6616-0.54268 11.685l-2.4545 2.4546-103.8-0.06339c-65.955-0.0403-104.7-0.42404-106.27-1.0526zm4.4794-56.697c-6.1486-0.38546-9.5-3.0971-9.5-7.6865 0-1.9867 0.83153-3.9181 2.25-5.226 2.2285-2.0548 3.0061-2.0789 81.25-2.5269 46.633-0.26696 80.088-0.0764 81.656 0.4652 3.1268 1.0803 5.3376 5.6868 4.4418 9.2556-1.3979 5.5696 1.1856 5.3851-80.097 5.7216-41.25 0.17077-77.25 0.16944-80-3e-3zm-7.5075-60.194c-1.6036-1.6036-2.0298-3.097-1.7973-6.2973 0.26643-3.6668 0.74565-4.4154 3.8048-5.9436 3.2203-1.6087 8.5093-1.7486 66.185-1.75 37.421-9.2e-4 63.698 0.38348 65.198 0.95382 1.382 0.52545 3.2752 2.1189 4.207 3.541 2.0772 3.1702 0.91043 6.4744-3.2489 9.2008-2.5663 1.6822-7.0852 1.8228-67.498 2.1002-64.657 0.29687-64.751 0.29433-66.85-1.8048zm3.5075-54.669c-5.1969-1.378-7.4022-8.3387-4.0814-12.883 1.369-1.8733 3.4734-1.9586 60.25-2.4411 32.357-0.275 62.386-0.275 66.73 0 7.0774 0.44801 8.1022 0.77349 9.8558 3.1302 2.4121 3.2417 1.6349 8.27-1.5914 10.296-1.7392 1.0921-14.606 1.4631-65.663 1.8932-34.925 0.29424-64.4 0.29633-65.5 5e-3zm0.74191-57.392c-2.5198-0.33641-4.8515-1.356-5.7169-2.5-2.0572-2.7194-1.8898-8.0671 0.32177-10.279 1.6985-1.6985 4.6093-1.8964 36.25-2.4638 46.167-0.82793 97.101-0.189 99.793 1.2518 2.4252 1.2979 3.5938 4.9938 2.7022 8.5461-1.3844 5.5158 0.0635 5.3924-67.095 5.7149-34.1 0.16375-63.915 0.0421-66.255-0.2704zm52.278-64.095c-3.5428-2.7868-3.2851-9.2122 0.47988-11.965 2.3619-1.7273 7.5561-1.8659 94.043-2.5102 50.349-0.37509 92.79-0.36919 94.313 0.0131 5.5064 1.382 6.5706 10.989 1.5168 13.693-1.2181 0.65189-23.319 1.1924-60.645 1.4833-32.301 0.25169-74.108 0.65842-92.906 0.90383-33.364 0.43557-34.24 0.39704-36.802-1.6179zm198.41 214.11c11.51-11.027 22.185-21.039 23.724-22.25l2.7973-2.2012 65.525-0.5c61.466-0.46902 65.742-0.6155 69.025-2.3642 4.8987-2.6091 8.816-6.4554 11.342-11.136 2.0714-3.8387 2.181-5.532 2.7172-42 0.95533-64.966 0.72147-79.368-1.3639-84-2.4306-5.3982-6.3256-9.368-11.466-11.686-4.086-1.8426-8.8165-1.9653-109-2.826-57.601-0.49489-106.3-0.54098-108.23-0.10242-7.8405 1.7862-12.626 5.742-15.88 13.127-1.8605 4.2227-2.0197 7.7643-2.697 60.007-0.39588 30.536-0.40743 57.602-0.0257 60.148 1.0309 6.8744 5.6974 13.246 11.92 16.274 4.4102 2.1463 7.1203 2.617 18.183 3.1581 20.14 0.98518 20.5 1.4828 20.5 28.369 0 11.362 0.37012 18.032 1.0006 18.032 0.55034 0 10.418-9.022 21.927-20.049zm-253.43-216.61c5.1969-2.7851 8.3111-6.1928 9.5239-10.422 0.53687-1.8719 0.97612-11.65 0.97612-21.73 0-16.981-0.12982-18.303-1.7687-18.007-1.5789 0.28527-12.903 12.372-38.003 40.561-4.5257 5.0828-8.2286 9.9582-8.2286 10.834 0 1.4074 1.9503 1.5528 16.75 1.2495 14.819-0.30374 17.211-0.59039 20.75-2.487z" fill="#384e4d"/>
  <path d="m404 725.96c-52.04-2.8186-107.31-19.769-154.26-47.306-50.155-29.418-93.019-72.911-119.75-121.5-34.358-62.463-48.189-136.98-38.449-207.16 10.106-72.809 41.237-135.64 92.942-187.57 45.826-46.031 98.582-75.532 162.51-90.88 49.27-11.828 110.24-11.233 161.47 1.5741 61.051 15.262 115.33 45.772 160.43 90.174 14.783 14.554 22.65 23.797 35.058 41.187 30.977 43.415 48.968 88.56 57.193 143.52 2.8916 19.321 3.6205 59.13 1.4564 79.549-5.6974 53.755-21.555 100.85-48.636 144.44-22.763 36.641-55.784 70.519-93.468 95.892-22.561 15.191-39.772 24.233-65.502 34.412-34.957 13.83-64.626 20.394-106.95 23.665-14.599 1.128-23.277 1.1288-44.05 4e-3zm45-17.011c101.42-7.1807 192.53-58.869 246.41-139.8 27.893-41.896 43.129-83.7 50.17-137.65 2.3243-17.811 2.3415-53.866 0.0353-73.89-6.0034-52.125-24.252-99.635-54.946-143.05-18.608-26.321-48.554-55.676-76.982-75.462-44.066-30.669-92.967-49.385-148.3-56.759-18.378-2.4491-63.831-2.4247-81.881 0.04401-58.205 7.9606-111.14 29.782-154.94 63.863-49.64 38.633-87.264 89.939-105.91 144.42-13.05 38.134-18.379 72.831-17.374 113.12 1.6371 65.63 23.199 127.78 62.474 180.09 15.874 21.14 44.585 48.594 68.957 65.937 17.6 12.524 44.354 27.152 65.657 35.897 45.642 18.738 96.482 26.798 146.63 23.247zm-228.89-125.03c-12.095-2.3963-23.506-10.908-28.61-21.339-6.1152-12.499-5.7064-1.8208-6.5495-171.09-0.46224-92.803-0.40515-157.73 0.14227-161.8 1.5651-11.632 2.9751-13.607 38.101-53.347 24.743-27.993 32.754-33.052 55.807-35.243 16.308-1.5498 141-3.3345 206.5-2.9556l59 0.34126 4.7917 2.3797c6.379 3.168 12.966 9.7219 16.215 16.133 4.7648 9.4029 5.457 15.683 5.476 49.678 0.01 17.155 0.35486 31.389 0.76736 31.63s20.726 0.75862 45.141 1.1492c31.884 0.51006 45.616 1.0789 48.74 2.0191 13.999 4.213 23.844 16.415 26.232 32.511 0.60345 4.068 0.67344 27.827 0.18706 63.5-0.82006 60.146-0.93213 61.529-5.743 70.864-2.2404 4.3473-8.9809 11.255-13.643 13.982-9.8325 5.751-11.616 5.9488-57.664 6.3973-23.375 0.22767-42.851 0.75161-43.279 1.1643s-0.81291 26.815-0.85401 58.671-0.46889 60.373-0.95065 63.37c-1.9947 12.408-9.9834 22.504-22.833 28.855l-7.4785 3.6962-157.55 0.14808c-86.654 0.0814-159.53-0.24348-161.94-0.72204zm318.89-17.518c6.4274-2.9878 10.498-6.7526 13.172-12.182l2.3279-4.7267 0.29464-59.344c0.21913-44.134-4e-3 -59.704-0.87244-60.75-0.85607-1.0315-3.7524-1.4062-10.868-1.4062h-9.7013l-11.426 10.787c-48.236 45.536-51.79 48.42-57.124 46.35-5.7916-2.2479-6.1833-4.0894-6.6004-31.029-0.42767-27.623-0.28015-27.107-7.7565-27.107-15.203 0-30.303-7.9508-36.925-19.442-5.9528-10.331-5.8804-9.4989-5.6185-64.558 0.29954-62.978 0.89285-72.851 4.8852-81.295 4.1738-8.8284 10.051-15.007 17.993-18.918l6.6755-3.2868 57.957-0.24081c45.29-0.18817 58.132-0.51602 58.757-1.5 0.43966-0.69255 0.80628-15.015 0.8147-31.828 0.0167-33.365-0.56542-37.903-5.6351-43.928-1.4306-1.7002-4.457-4.084-6.7253-5.2974-3.9866-2.1326-5.2917-2.2178-39.124-2.5552-42.239-0.42122-200.03 1.652-217.38 2.8562-6.8108 0.47261-12.844 1.3205-13.408 1.8842-0.65743 0.65743-0.94334 9.9237-0.79741 25.844 0.21575 23.538 0.11219 25.127-2.0061 30.789-2.948 7.8791-10.547 15.435-18.608 18.503-5.1229 1.9498-8.2964 2.2651-27.297 2.7127-12.05 0.28383-22.052 0.94732-22.755 1.5095-0.99767 0.79754-1.1512 22.333-0.74949 105.13 0.81982 168.96 1.2906 200.54 3.0793 206.56 1.7886 6.023 6.983 12.237 12.857 15.381 3.8245 2.0471 5.7758 2.2104 32.568 2.7254 15.675 0.30131 86.325 0.52631 157 0.5 128.23-0.0477 128.51-0.0522 133-2.1397zm-288.86-51.513c-1.7001-0.34771-4.2539-1.394-5.675-2.3252-3.8253-2.5064-3.1295-7.2958 1.4467-9.9584 3.3316-1.9385 5.8815-1.9962 107-2.4178 102.26-0.42643 103.62-0.40648 106.04 1.5584 3.1188 2.5337 3.3806 8.3898 0.5 11.184-1.8819 1.8253-5.5167 1.9035-104.08 2.2414-56.174 0.19255-103.52 0.0656-105.22-0.28212zm-3.6412-58.038c-2.7892-1.6547-3.4694-2.9011-3.4694-6.3574 0-3.9675 1.0017-5.3621 4.5909-6.3914 1.6395-0.4702 38.144-0.93862 81.12-1.0409 77.679-0.18493 78.152-0.17388 80.199 1.8732 2.5806 2.5806 2.6462 7.1128 0.14762 10.198l-1.9116 2.3608-79.338 0.27195c-59.834 0.2051-79.83-0.0197-81.338-0.91453zm-0.86148-58.35c-4.7699-2.378-4.376-10.527 0.59919-12.398 1.2443-0.46774 30.915-1.0212 65.934-1.2299 63.401-0.37788 63.684-0.37055 66.5 1.7194 5.6183 4.1701 2.8936 10.595-5.0236 11.846-6.7134 1.0608-125.89 1.1187-128.01 0.0621zm-1.1559-57.934c-1.3654-1.3654-2.4826-3.1569-2.4826-3.981 0-2.4341 2.146-6.425 3.8854-7.2257 0.888-0.40875 30.506-0.92503 65.818-1.1473l64.203-0.40412 2.5468 2.5468c3.0304 3.0304 3.2584 6.5373 0.63561 9.777l-1.9112 2.3608-130.21 0.5561zm0.82016-55.759c-4.6341-2.2631-4.8983-10.355-0.41637-12.754 1.3389-0.71656 23.097-1.0608 67.048-1.0608 63.732 0 65.107 0.041 67.066 2 2.6952 2.6952 2.6418 8.1091-0.10453 10.595-2.019 1.8276-4.7303 1.9129-66.75 2.0988-44.376 0.13302-65.334-0.14267-66.843-0.87927zm55.146-64.275c-3.0455-3.0455-3.104-5.6893-0.19826-8.9611l2.25-2.5335 51-0.5307c28.05-0.29188 69.497-0.76555 92.105-1.0526 26.549-0.33709 42.046-0.16416 43.762 0.48832 5.7837 2.199 6.0058 10.192 0.34693 12.484-2.5184 1.0202-23.093 1.4377-95.016 1.9278l-91.802 0.62559zm200.15 215.46c12.463-11.825 23.793-22.112 25.179-22.859 2.054-1.1085 11.03-1.2791 48.621-0.92398 25.356 0.23952 54.427 0.16717 64.602-0.16077 17.239-0.55562 18.804-0.76529 22.953-3.076 5.2094-2.9008 10.575-9.5108 11.99-14.772 0.59266-2.2033 1.1109-27.244 1.2772-61.708l0.27984-58-3-5.4663c-3.8825-7.0744-9.1682-10.792-17.003-11.958-9.0816-1.3519-208.57-2.4031-213.32-1.1241-6.2221 1.6754-11.655 6.2773-14.658 12.416l-2.6973 5.513-0.56066 58.81-0.56065 58.81 2.5555 5c5.5785 10.915 11.016 13.572 29.467 14.404 17.183 0.77438 17.5 1.0304 18.425 14.872 0.35738 5.3481 0.69488 14.819 0.75 21.047 0.0832 9.406 0.34902 11.269 1.5696 11 0.80817-0.17782 11.666-9.9983 24.129-21.823zm-255.86-215.42c5.2671-2.2243 9.8455-7.3193 11.244-12.513 0.62159-2.3084 0.95153-11.374 0.79207-21.763-0.26167-17.049-0.35841-17.807-2.2733-17.807-2.0112 0-6.2905 4.4666-34.285 35.785-12.596 14.092-14.183 16.402-12.465 18.141 0.4125 0.41773 7.95 0.57638 16.75 0.35256 12.44-0.3164 16.943-0.80514 20.237-2.1963z" fill="#171817"/>
 </g>
</svg>
